
<svg version="1.1" xmlns="http://www.w3.org/2000/svg" xmlns:xlink="http://www.w3.org/1999/xlink" viewBox="0 0 172 172"><g fill="none" fill-rule="nonzero" stroke="none" stroke-width="1" stroke-linecap="butt" stroke-linejoin="miter" stroke-miterlimit="10" stroke-dasharray="" stroke-dashoffset="0" font-family="none" font-weight="none" font-size="none" text-anchor="none" style="mix-blend-mode: normal"><path d="M0,172v-172h172v172z" fill="none"></path><g fill="#333333"><path d="M81.6916,17.2c-2.35156,0 -4.3,1.94844 -4.3,4.3c-22.54141,0 -40.85,18.31699 -40.85,40.85v8.17168l-22.75137,55.15254c-2.1332,5.01387 -0.30234,10.89277 4.34199,13.77344c0.84824,0.5291 2.30957,1.34375 2.30957,1.34375l1.99043,1.10859l0.0084,0.0084l0.0084,-0.0084c10.86758,0 21.55039,0.84824 30.88106,2.1248l-5.04746,-4.95508c-7.75176,-0.85664 -15.90664,-1.36055 -23.80957,-1.43613c1.57891,-3.35098 13.12676,-27.74844 22.45742,-46.93047c3.64492,-7.48301 6.65156,-11.95098 9.46504,-14.42851c2.80508,-2.47754 5.3582,-3.17461 9.1123,-3.17461c6.39961,0 12.49688,5.81172 12.49688,5.81172l0.63828,0.63828h14.68047l0.63828,-0.63828c0,0 6.10566,-5.81172 12.50527,-5.81172c3.7541,0 6.30723,0.69707 9.11231,3.17461c2.80508,2.47754 5.81172,6.94551 9.45664,14.42851c9.33906,19.18203 20.90371,43.59629 22.48262,46.93047c-7.89453,0.07559 -16.04941,0.57949 -23.79277,1.43613l-5.04746,4.95508c9.33066,-1.27656 20.00508,-2.1248 30.88105,-2.1248v-0.0084l1.99043,-1.10859c0,0 1.45293,-0.80625 2.30117,-1.33535h0.0084c4.64434,-2.88066 6.4668,-8.75957 4.33359,-13.77344l-22.74297,-55.15254v-8.17168c0,-22.53301 -18.31699,-40.85 -40.85,-40.85c0,-2.35156 -1.94844,-4.3 -4.3,-4.3zM81.6916,21.5h8.6084v4.3h4.3c20.21504,0 36.55,16.33496 36.55,36.55v4.3c-1.18418,0 -2.15,0.96582 -2.15,2.15c0,1.18418 0.96582,2.15 2.15,2.15v0.42832l23.0873,55.95879v0.0168c1.32695,3.10742 0.20996,6.66836 -2.64551,8.44043c-0.04199,0.0252 -0.10078,0.05879 -0.15117,0.09238c-1.075,-2.28438 -12.95879,-27.3873 -22.54141,-47.06484c-3.7457,-7.70137 -6.91191,-12.63125 -10.48125,-15.77226c-3.56094,-3.14102 -7.55859,-4.24961 -11.95098,-4.24961c-5.13144,0 -9.27187,2.19199 -11.88379,4.05645c-0.12598,-1.0834 -1.04141,-1.90645 -2.1332,-1.90645c-1.18418,0 -2.15,0.96582 -2.15,2.15c0,0.94062 0.62149,1.78047 1.52012,2.04922c-0.0168,0.0252 -0.09238,0.08399 -0.10918,0.10078h-11.45547c-0.0084,-0.0168 -0.07559,-0.06719 -0.10078,-0.09238c0.91543,-0.26875 1.54531,-1.10859 1.54531,-2.05762c0,-1.18418 -0.96582,-2.15 -2.15,-2.15c-1.1002,0 -2.02402,0.83145 -2.1416,1.92324c-2.61191,-1.86445 -6.76074,-4.07324 -11.90059,-4.07324c-4.39238,0 -8.39844,1.10859 -11.95938,4.24961c-3.56094,3.14101 -6.73555,8.0709 -10.48125,15.77226c-9.57422,19.67754 -21.43281,44.78047 -22.51621,47.06484c-0.05039,-0.03359 -0.10918,-0.05879 -0.15957,-0.09238c-2.85547,-1.76367 -3.96406,-5.33301 -2.64551,-8.44043l0.0084,-0.0084l23.0873,-55.96719v-0.42832c1.18418,0 2.15,-0.96582 2.15,-2.15c0,-1.18418 -0.96582,-2.15 -2.15,-2.15v-4.3c0,-20.21504 16.33496,-36.55 36.55,-36.55h4.3zM79.55,27.95c-1.18418,0 -2.15,0.96582 -2.15,2.15c0,1.18418 0.96582,2.15 2.15,2.15c1.18418,0 2.15,-0.96582 2.15,-2.15c0,-1.18418 -0.96582,-2.15 -2.15,-2.15zM92.45,27.95c-1.18418,0 -2.15,0.96582 -2.15,2.15c0,1.18418 0.96582,2.15 2.15,2.15c1.18418,0 2.15,-0.96582 2.15,-2.15c0,-1.18418 -0.96582,-2.15 -2.15,-2.15zM79.55,36.55c-1.18418,0 -2.15,0.96582 -2.15,2.15c0,1.18418 0.96582,2.15 2.15,2.15c1.18418,0 2.15,-0.96582 2.15,-2.15c0,-1.18418 -0.96582,-2.15 -2.15,-2.15zM92.45,36.55c-1.18418,0 -2.15,0.96582 -2.15,2.15c0,1.18418 0.96582,2.15 2.15,2.15c1.18418,0 2.15,-0.96582 2.15,-2.15c0,-1.18418 -0.96582,-2.15 -2.15,-2.15zM79.55,45.15c-1.18418,0 -2.15,0.96582 -2.15,2.15c0,1.18418 0.96582,2.15 2.15,2.15c1.18418,0 2.15,-0.96582 2.15,-2.15c0,-1.18418 -0.96582,-2.15 -2.15,-2.15zM92.45,45.15c-1.18418,0 -2.15,0.96582 -2.15,2.15c0,1.18418 0.96582,2.15 2.15,2.15c1.18418,0 2.15,-0.96582 2.15,-2.15c0,-1.18418 -0.96582,-2.15 -2.15,-2.15zM79.55,53.75c-1.18418,0 -2.15,0.96582 -2.15,2.15c0,1.18418 0.96582,2.15 2.15,2.15c1.18418,0 2.15,-0.96582 2.15,-2.15c0,-1.18418 -0.96582,-2.15 -2.15,-2.15zM92.45,53.75c-1.18418,0 -2.15,0.96582 -2.15,2.15c0,1.18418 0.96582,2.15 2.15,2.15c1.18418,0 2.15,-0.96582 2.15,-2.15c0,-1.18418 -0.96582,-2.15 -2.15,-2.15zM55.8916,58.05c-1.19258,0 -2.15,0.96582 -2.15,2.15c0,1.18418 0.95742,2.15 2.15,2.15c1.18418,0 2.15,-0.96582 2.15,-2.15c0,-1.18418 -0.96582,-2.15 -2.15,-2.15zM64.4916,58.05c-1.19258,0 -2.15,0.96582 -2.15,2.15c0,1.18418 0.95742,2.15 2.15,2.15c1.18418,0 2.15,-0.96582 2.15,-2.15c0,-1.18418 -0.96582,-2.15 -2.15,-2.15zM107.5,58.05c-1.18418,0 -2.15,0.96582 -2.15,2.15c0,1.18418 0.96582,2.15 2.15,2.15c1.18418,0 2.15,-0.96582 2.15,-2.15c0,-1.18418 -0.96582,-2.15 -2.15,-2.15zM116.1,58.05c-1.18418,0 -2.15,0.96582 -2.15,2.15c0,1.18418 0.96582,2.15 2.15,2.15c1.18418,0 2.15,-0.96582 2.15,-2.15c0,-1.18418 -0.96582,-2.15 -2.15,-2.15zM47.2916,60.2c-1.19258,0 -2.15,0.96582 -2.15,2.15c0,1.18418 0.95742,2.15 2.15,2.15c1.18418,0 2.15,-0.96582 2.15,-2.15c0,-1.18418 -0.96582,-2.15 -2.15,-2.15zM124.7,60.2c-1.18418,0 -2.15,0.96582 -2.15,2.15c0,1.18418 0.96582,2.15 2.15,2.15c1.18418,0 2.15,-0.96582 2.15,-2.15c0,-1.18418 -0.96582,-2.15 -2.15,-2.15zM79.55,62.35c-1.18418,0 -2.15,0.96582 -2.15,2.15c0,1.18418 0.96582,2.15 2.15,2.15c1.18418,0 2.15,-0.96582 2.15,-2.15c0,-1.18418 -0.96582,-2.15 -2.15,-2.15zM92.45,62.35c-1.18418,0 -2.15,0.96582 -2.15,2.15c0,1.18418 0.96582,2.15 2.15,2.15c1.18418,0 2.15,-0.96582 2.15,-2.15c0,-1.18418 -0.96582,-2.15 -2.15,-2.15zM68.8,79.55c-11.90059,0 -16.97324,9.78418 -16.97324,9.78418l-0.22676,0.46191v4.80391c0,4.72832 3.87168,8.6 8.6,8.6h17.51074c-0.18476,0.68867 -0.31074,1.40254 -0.31074,2.15v5.54297l-16.60371,16.29297l-7.23105,-16.25938c-0.35274,-0.81465 -1.15899,-1.33535 -2.04922,-1.30176c-0.72227,0.0252 -1.37734,0.40312 -1.75528,1.01621c-0.37793,0.61309 -0.42832,1.37734 -0.12597,2.03242l8.12129,18.275c-1.14219,1.16738 -1.85605,2.75469 -1.85605,4.50156c0,3.53574 2.91426,6.45 6.45,6.45c1.18418,0 2.27598,-0.34434 3.225,-0.90703l18.91328,18.58574c0.83984,0.82305 2.18359,0.82305 3.02344,0l18.91328,-18.58574c0.94902,0.5627 2.04922,0.90703 3.225,0.90703c3.53574,0 6.45,-2.91426 6.45,-6.45c0,-1.74687 -0.71387,-3.33418 -1.85605,-4.50156l8.12129,-18.275c0.31074,-0.66348 0.25195,-1.43613 -0.13437,-2.05762c-0.39473,-0.62149 -1.075,-0.99102 -1.80566,-0.99941c-0.86504,0 -1.65449,0.5123 -1.99043,1.31016l-7.23106,16.25938l-16.60371,-16.29297v-5.54297c0,-0.74746 -0.12598,-1.46133 -0.31074,-2.15h17.51074c4.72832,0 8.6,-3.87168 8.6,-8.6v-4.80391l-0.22676,-0.46191c0,0 -5.07266,-9.78418 -16.97324,-9.78418c-2.86387,0 -5.44219,1.36895 -7.58379,3.1998c-2.1332,1.83926 -3.88847,4.18242 -5.08945,6.58437l-0.22676,0.46191v8.16328c-1.26816,-0.74746 -2.72949,-1.20937 -4.3,-1.20937c-1.57051,0 -3.03184,0.46191 -4.3,1.20937v-8.16328l-0.22676,-0.46191c-1.20097,-2.40195 -2.95625,-4.74512 -5.08945,-6.58437c-2.1416,-1.83086 -4.71992,-3.1998 -7.58379,-3.1998zM68.8,83.85c1.43613,0 3.15781,0.78105 4.77871,2.1752c1.53691,1.31016 2.87227,3.14941 3.82129,4.94668v7.92812h-17.2c-2.40195,0 -4.3,-1.89805 -4.3,-4.3v-3.62812c0.26035,-0.5207 3.66172,-7.12188 12.9,-7.12188zM103.2,83.85c9.23828,0 12.63965,6.60117 12.9,7.12188v3.62812c0,2.40195 -1.89805,4.3 -4.3,4.3h-17.2v-7.92812c0.94902,-1.79726 2.28437,-3.63652 3.82129,-4.94668c1.6209,-1.39414 3.34258,-2.1752 4.77871,-2.1752zM86,101.05c2.40195,0 4.3,1.89805 4.3,4.3v4.3h-8.6v-4.3c0,-2.40195 1.89805,-4.3 4.3,-4.3zM83.85,113.95h4.3v19.35h-4.3zM79.55,114.81504v18.48496h-4.3v-14.10098h-0.16797zM92.45,114.81504l4.46797,4.38398h-0.16797v14.10098h-4.3zM70.95,123.24707v10.05293h-2.55313c-0.63828,-1.76367 -2.02402,-3.17461 -3.7625,-3.85488zM101.05,123.24707l6.31562,6.19805c-1.74688,0.67188 -3.12422,2.08281 -3.7625,3.85488h-2.55312zM62.35,133.3c1.20938,0 2.15,0.94063 2.15,2.15c0,1.20937 -0.94063,2.15 -2.15,2.15c-1.20937,0 -2.15,-0.94063 -2.15,-2.15c0,-1.20937 0.94063,-2.15 2.15,-2.15zM109.65,133.3c1.20938,0 2.15,0.94063 2.15,2.15c0,1.20937 -0.94062,2.15 -2.15,2.15c-1.20937,0 -2.15,-0.94063 -2.15,-2.15c0,-1.20937 0.94062,-2.15 2.15,-2.15zM68.39687,137.6h35.20625c0.0084,0.03359 0.0168,0.06719 0.03359,0.10078l-17.63672,17.33437l-17.64512,-17.34277c0.0084,-0.03359 0.03359,-0.05879 0.04199,-0.09238z"></path></g></g></svg>